<svg xmlns="http://www.w3.org/2000/svg" width="14.173" height="9.921" viewBox="0 0 14.173 9.921"><defs><style>.a{fill:#413f60;}</style></defs><path class="a" d="M4.252,7.21a2.48,2.48,0,1,0-2.48-2.48A2.479,2.479,0,0,0,4.252,7.21Zm1.7.709H5.769a3.424,3.424,0,0,1-3.034,0H2.551A2.552,2.552,0,0,0,0,10.47v.638a1.063,1.063,0,0,0,1.063,1.063H7.441A1.063,1.063,0,0,0,8.5,11.108V10.47A2.552,2.552,0,0,0,5.953,7.919ZM10.63,7.21A2.126,2.126,0,1,0,8.5,5.085,2.126,2.126,0,0,0,10.63,7.21Zm1.063.709h-.084a2.793,2.793,0,0,1-1.958,0H9.567a2.46,2.46,0,0,0-1.233.341,3.241,3.241,0,0,1,.879,2.21v.85c0,.049-.011.1-.013.142H13.11A1.063,1.063,0,0,0,14.173,10.4a2.479,2.479,0,0,0-2.48-2.48Z" transform="translate(0 -2.25)"/></svg>