<svg xmlns="http://www.w3.org/2000/svg" width="29.111" height="25.472" viewBox="0 0 29.111 25.472"><defs><style>.a{fill:#413f60;}</style></defs><path class="a" d="M27.746,14.986H4.549V6.8A1.819,1.819,0,0,1,7.9,5.825a3.864,3.864,0,0,0,.389,4.721.682.682,0,0,0,.028.934l.643.643a.682.682,0,0,0,.965,0l5.4-5.4a.682.682,0,0,0,0-.965l-.643-.643a.682.682,0,0,0-.934-.028,3.858,3.858,0,0,0-3.649-.874A4.547,4.547,0,0,0,1.819,6.8v8.188H1.365A1.365,1.365,0,0,0,0,16.351v.91a1.365,1.365,0,0,0,1.365,1.365h.455v1.819a5.444,5.444,0,0,0,1.819,4.068v1.845A1.365,1.365,0,0,0,5,27.722h.91a1.365,1.365,0,0,0,1.365-1.365V25.9H21.833v.455A1.365,1.365,0,0,0,23.2,27.722h.91a1.365,1.365,0,0,0,1.365-1.365V24.512a5.444,5.444,0,0,0,1.819-4.068V18.625h.455a1.365,1.365,0,0,0,1.365-1.365v-.91A1.365,1.365,0,0,0,27.746,14.986Z" transform="translate(0 -2.25)"/></svg>