<svg xmlns="http://www.w3.org/2000/svg" width="15.504" height="10.852" viewBox="0 0 15.504 10.852"><defs><style>.a{fill:#000024;}</style></defs><path class="a" d="M4.651,7.676A2.713,2.713,0,1,0,1.938,4.963,2.712,2.712,0,0,0,4.651,7.676Zm1.86.775h-.2a3.746,3.746,0,0,1-3.319,0h-.2A2.791,2.791,0,0,0,0,11.242v.7A1.163,1.163,0,0,0,1.163,13.1H8.139A1.163,1.163,0,0,0,9.3,11.94v-.7A2.791,2.791,0,0,0,6.511,8.451Zm5.116-.775A2.326,2.326,0,1,0,9.3,5.351,2.326,2.326,0,0,0,11.628,7.676Zm1.163.775H12.7a3.055,3.055,0,0,1-2.141,0h-.092a2.691,2.691,0,0,0-1.349.373,3.545,3.545,0,0,1,.962,2.418v.93c0,.053-.012.1-.015.155h4.278A1.163,1.163,0,0,0,15.5,11.165,2.712,2.712,0,0,0,12.79,8.451Z" transform="translate(0 -2.25)"/></svg>