<svg xmlns="http://www.w3.org/2000/svg" width="14.623" height="14.623" viewBox="0 0 14.623 14.623"><defs><style>.a{fill:#413f60;}</style></defs><path class="a" d="M7.311.563a7.311,7.311,0,1,0,7.311,7.311A7.311,7.311,0,0,0,7.311.563ZM9.737,11.1l-.333.333a.7.7,0,0,0-.182.316c-.045.167-.08.335-.141.5l-.513,1.381a5.892,5.892,0,0,1-1.257.138v-.807a2.207,2.207,0,0,0-.667-1.511.943.943,0,0,1-.276-.667V9.841a.94.94,0,0,0-.485-.825c-.424-.234-1.026-.562-1.439-.77a4.25,4.25,0,0,1-.933-.641l-.024-.021a3.384,3.384,0,0,1-.532-.611c-.277-.406-.727-1.074-1.02-1.508a5.928,5.928,0,0,1,3.042-3l.708.354a.472.472,0,0,0,.683-.422V2.06a5.892,5.892,0,0,1,.719-.071l.834.834a.472.472,0,0,1,0,.667l-.138.138-.3.3a.236.236,0,0,0,0,.333l.138.138a.236.236,0,0,1,0,.333l-.236.236a.236.236,0,0,1-.167.069H6.949a.236.236,0,0,0-.165.067l-.292.284a.236.236,0,0,0-.047.274l.46.92a.236.236,0,0,1-.211.341H6.528a.236.236,0,0,1-.154-.058L6.1,6.635a.472.472,0,0,0-.458-.091l-.919.306a.352.352,0,0,0-.046.649L5,7.662a2,2,0,0,0,.894.211c.31,0,.666.8.943.943H8.808a.944.944,0,0,1,.667.276l.4.4a.9.9,0,0,1,.263.636,1.372,1.372,0,0,1-.4.972Zm2.556-2.693a.708.708,0,0,1-.417-.294l-.53-.8a.707.707,0,0,1,0-.785l.578-.866a.707.707,0,0,1,.272-.24l.383-.191a5.712,5.712,0,0,1,.575,3.386Z" transform="translate(0 -0.563)"/></svg>