<svg xmlns="http://www.w3.org/2000/svg" width="15.186" height="15.186" viewBox="0 0 15.186 15.186"><defs><style>.a{fill:#413f60;}</style></defs><path class="a" d="M8.156.563a7.593,7.593,0,1,0,7.593,7.593A7.594,7.594,0,0,0,8.156.563Zm0,3.368A1.286,1.286,0,1,1,6.87,5.216,1.286,1.286,0,0,1,8.156,3.93ZM9.87,11.707a.367.367,0,0,1-.367.367H6.808a.367.367,0,0,1-.367-.367v-.735a.367.367,0,0,1,.367-.367h.367V8.645H6.808a.367.367,0,0,1-.367-.367V7.543a.367.367,0,0,1,.367-.367H8.768a.367.367,0,0,1,.367.367V10.6H9.5a.367.367,0,0,1,.367.367Z" transform="translate(-0.563 -0.563)"/></svg>