<svg xmlns="http://www.w3.org/2000/svg" width="14.831" height="14.831" viewBox="0 0 14.831 14.831"><defs><style>.a{fill:#000024;}</style></defs><path class="a" d="M7.978.563a7.415,7.415,0,1,0,7.415,7.415A7.416,7.416,0,0,0,7.978.563Zm0,3.289A1.256,1.256,0,1,1,6.722,5.107,1.256,1.256,0,0,1,7.978,3.852Zm1.674,7.595a.359.359,0,0,1-.359.359H6.662a.359.359,0,0,1-.359-.359v-.718a.359.359,0,0,1,.359-.359h.359V8.456H6.662A.359.359,0,0,1,6.3,8.1V7.38a.359.359,0,0,1,.359-.359H8.576a.359.359,0,0,1,.359.359v2.99h.359a.359.359,0,0,1,.359.359Z" transform="translate(-0.563 -0.563)"/></svg>