<svg xmlns="http://www.w3.org/2000/svg" width="10.51" height="14.013" viewBox="0 0 10.51 14.013"><defs><style>.a{fill:#413f60;}</style></defs><path class="a" d="M6.131,3.722V0H.657A.655.655,0,0,0,0,.657v12.7a.655.655,0,0,0,.657.657h9.2a.655.655,0,0,0,.657-.657V4.379H6.788A.659.659,0,0,1,6.131,3.722Zm1.752,6.459a.329.329,0,0,1-.328.328h-4.6a.329.329,0,0,1-.328-.328V9.962a.329.329,0,0,1,.328-.328h4.6a.329.329,0,0,1,.328.328Zm0-1.752a.329.329,0,0,1-.328.328h-4.6a.329.329,0,0,1-.328-.328V8.211a.329.329,0,0,1,.328-.328h4.6a.329.329,0,0,1,.328.328Zm0-1.971v.219a.329.329,0,0,1-.328.328h-4.6a.329.329,0,0,1-.328-.328V6.459a.329.329,0,0,1,.328-.328h4.6A.329.329,0,0,1,7.882,6.459ZM10.51,3.336V3.5h-3.5V0h.167a.656.656,0,0,1,.465.192l2.679,2.682A.655.655,0,0,1,10.51,3.336Z"/></svg>