<svg xmlns="http://www.w3.org/2000/svg" width="14.874" height="14.874" viewBox="0 0 14.874 14.874"><defs><style>.a{fill:#413f60;}</style></defs><path class="a" d="M15.436,8A7.437,7.437,0,1,1,8,.563,7.436,7.436,0,0,1,15.436,8ZM8.2,3.021A3.884,3.884,0,0,0,4.7,4.933a.36.36,0,0,0,.081.488l1.041.789a.36.36,0,0,0,.5-.064c.536-.679.9-1.073,1.718-1.073.613,0,1.37.394,1.37.988,0,.449-.371.68-.976,1.019C7.733,7.475,6.8,7.968,6.8,9.2v.12a.36.36,0,0,0,.36.36H8.839a.36.36,0,0,0,.36-.36v-.04c0-.854,2.495-.889,2.495-3.2C11.693,4.341,9.889,3.021,8.2,3.021ZM8,10.458a1.379,1.379,0,1,0,1.379,1.379A1.381,1.381,0,0,0,8,10.458Z" transform="translate(-0.563 -0.563)"/></svg>