<svg xmlns="http://www.w3.org/2000/svg" width="21.831" height="29.111" viewBox="0 0 21.831 29.111"><defs><style>.a{fill:#fff;}</style></defs><path class="a" d="M10.917,9.1A4.549,4.549,0,1,0,6.369,4.549,4.547,4.547,0,0,0,10.917,9.1ZM7.881,23.243l1.456-1.819-3.5-2.911L3.23,21.776a2.279,2.279,0,0,0-.045,2.786L5.914,28.2a2.274,2.274,0,1,0,3.639-2.729Zm8.114-4.731-3.5,2.911,1.456,1.819-1.672,2.229A2.274,2.274,0,1,0,15.921,28.2l2.729-3.639a2.279,2.279,0,0,0-.045-2.786l-2.61-3.264ZM21.419,8.244a2.277,2.277,0,0,0-3.167-.557l-2.308,1.62a8.8,8.8,0,0,1-10.052,0L3.582,7.693A2.273,2.273,0,0,0,.967,11.411l2.308,1.62a13.491,13.491,0,0,0,3.093,1.586v1.757h9.1V14.624a13.491,13.491,0,0,0,3.093-1.586l2.308-1.62A2.278,2.278,0,0,0,21.419,8.244Z" transform="translate(-0.003)"/></svg>