<svg xmlns="http://www.w3.org/2000/svg" width="26.282" height="21.867" viewBox="0 0 26.282 21.867"><defs><style>.a{fill:#fff;stroke:#413f60;stroke-linecap:round;stroke-linejoin:round;stroke-width:2px;}</style></defs><g transform="translate(1 1)"><path class="a" d="M25.782,22.16a2.207,2.207,0,0,1-2.207,2.207H3.707A2.207,2.207,0,0,1,1.5,22.16V10.019A2.207,2.207,0,0,1,3.707,7.811H8.122L10.33,4.5h6.622L19.16,7.811h4.415a2.207,2.207,0,0,1,2.207,2.207Z" transform="translate(-1.5 -4.5)"/><path class="a" d="M20.035,17.517A4.017,4.017,0,1,1,16.017,13.5,4.017,4.017,0,0,1,20.035,17.517Z" transform="translate(-3.876 -6.401)"/></g></svg>