<svg xmlns="http://www.w3.org/2000/svg" width="24.095" height="20.078" viewBox="0 0 24.095 20.078"><defs><style>.a{opacity:0.7;}.b{fill:none;stroke:#fff;stroke-linecap:round;stroke-linejoin:round;stroke-width:2px;}</style></defs><g class="a" transform="translate(1 1)"><path class="b" d="M23.6,20.569a2.009,2.009,0,0,1-2.009,2.009H3.509A2.009,2.009,0,0,1,1.5,20.569V9.522A2.009,2.009,0,0,1,3.509,7.513H7.526L9.535,4.5h6.026l2.009,3.013h4.017A2.009,2.009,0,0,1,23.6,9.522Z" transform="translate(-1.5 -4.5)"/><path class="b" d="M20.035,17.517A4.017,4.017,0,1,1,16.017,13.5,4.017,4.017,0,0,1,20.035,17.517Z" transform="translate(-4.97 -7.474)"/></g></svg>