<svg xmlns="http://www.w3.org/2000/svg" width="22.067" height="22.067" viewBox="0 0 22.067 22.067"><defs><style>.a{fill:none;stroke:#adacbc;stroke-linecap:round;stroke-linejoin:round;stroke-width:1.5px;}</style></defs><g transform="translate(1.061 1.061)"><path class="a" d="M16.858,18.638a9.13,9.13,0,0,1-5.385,1.868c-6.346,0-9.973-7.253-9.973-7.253A16.727,16.727,0,0,1,6.088,7.868m3.481-1.65A8.269,8.269,0,0,1,11.473,6c6.346,0,9.973,7.253,9.973,7.253a16.773,16.773,0,0,1-1.958,2.892m-6.093-.97a2.72,2.72,0,1,1-3.844-3.844" transform="translate(-1.5 -3.28)"/><path class="a" d="M1.5,1.5,21.446,21.446" transform="translate(-1.5 -1.5)"/></g></svg>