<svg xmlns="http://www.w3.org/2000/svg" width="24.168" height="18.794" viewBox="0 0 24.168 18.794"><defs><style>.a{fill:#f28740;}</style></defs><path class="a" d="M11.763,7.129,4.027,13.5v6.876a.671.671,0,0,0,.671.671l4.7-.012a.671.671,0,0,0,.668-.671V16.349a.671.671,0,0,1,.671-.671h2.685a.671.671,0,0,1,.671.671v4.013a.671.671,0,0,0,.671.673l4.7.013a.671.671,0,0,0,.671-.671V13.5L12.4,7.129A.511.511,0,0,0,11.763,7.129Zm12.219,4.33L20.474,8.568V2.757a.5.5,0,0,0-.5-.5h-2.35a.5.5,0,0,0-.5.5V5.8l-3.756-3.09a2.014,2.014,0,0,0-2.559,0L.182,11.459a.5.5,0,0,0-.067.709l1.07,1.3a.5.5,0,0,0,.709.068l9.869-8.129a.511.511,0,0,1,.642,0l9.869,8.129a.5.5,0,0,0,.709-.067l1.07-1.3a.5.5,0,0,0-.071-.71Z" transform="translate(0.001 -2.254)"/></svg>