<svg xmlns="http://www.w3.org/2000/svg" width="12.958" height="27.292" viewBox="0 0 12.958 27.292"><defs><style>.a{fill:#fff;}</style></defs><path class="a" d="M17.364,6.276h-.011A2.576,2.576,0,1,1,19.94,3.7a2.582,2.582,0,0,1-2.576,2.576Z" transform="translate(-10.899 -1.125)"/><path class="a" d="M14.487,29.749a1.554,1.554,0,0,1-1.535-1.728l.057-15.784h-.569v5.97a1.379,1.379,0,0,1-.364,1.04,1.208,1.208,0,0,1-1.728,0,1.37,1.37,0,0,1-.364-1.04V11.293a3.284,3.284,0,0,1,.785-2.183,2.9,2.9,0,0,1,2.217-1.023H19.94a2.89,2.89,0,0,1,2.217,1.029,3.27,3.27,0,0,1,.785,2.178v6.914a1.348,1.348,0,0,1-.375,1.04,1.278,1.278,0,0,1-1.763,0,1.348,1.348,0,0,1-.375-1.04v-5.97h-.512V28.02a1.575,1.575,0,1,1-3.139.034V20.026H16.1v8.011A1.617,1.617,0,0,1,14.487,29.749Z" transform="translate(-9.984 -2.457)"/></svg>