<svg xmlns="http://www.w3.org/2000/svg" width="14.615" height="14.615" viewBox="0 0 14.615 14.615"><defs><style>.a{fill:#413f60;}</style></defs><path class="a" d="M9.69,2.25A7.147,7.147,0,0,0,2.515,9.369a7.046,7.046,0,0,0,1.03,3.676L2.25,16.865,6.222,15.6A7.187,7.187,0,0,0,16.865,9.369,7.147,7.147,0,0,0,9.69,2.25Zm3.568,9.823a1.853,1.853,0,0,1-1.269.818c-.336.018-.346.261-2.18-.536a7.486,7.486,0,0,1-3.025-2.86,3.519,3.519,0,0,1-.677-1.907A2.033,2.033,0,0,1,6.8,6.1a.7.7,0,0,1,.5-.209c.144,0,.238,0,.345,0s.267-.022.406.347.471,1.277.514,1.37a.332.332,0,0,1,0,.319,1.246,1.246,0,0,1-.194.3c-.1.1-.2.23-.287.308s-.195.182-.095.368a5.49,5.49,0,0,0,.971,1.3,5.006,5.006,0,0,0,1.439.956c.18.1.287.087.4-.03s.478-.514.607-.691.25-.143.416-.076,1.049.54,1.229.638.3.148.343.225A1.507,1.507,0,0,1,13.258,12.073Z" transform="translate(-2.25 -2.25)"/></svg>