<svg xmlns="http://www.w3.org/2000/svg" width="14.561" height="27.292" viewBox="0 0 14.561 27.292"><defs><style>.a{fill:#fff;}</style></defs><path class="a" d="M17.98,29.722a1.258,1.258,0,0,1-.91-.375,1.459,1.459,0,0,1-.4-1.058V21.5h-.79v6.789a1.43,1.43,0,0,1-.421,1.063,1.347,1.347,0,0,1-1.854,0,1.419,1.419,0,0,1-.421-1.063V21.5h-2.5l2.53-9.7h-.387l-1.387,5.14a1.292,1.292,0,0,1-1.217,1.012h0a1.209,1.209,0,0,1-.967-.495,1.534,1.534,0,0,1-.2-1.359L10.7,10.18a3.108,3.108,0,0,1,2.769-2.235h5.595a3.244,3.244,0,0,1,2.758,2.212l.006.023,1.649,5.93a1.549,1.549,0,0,1-.222,1.365,1.218,1.218,0,0,1-.961.489,1.293,1.293,0,0,1-1.211-1.029v-.011L19.7,11.8h-.438l2.587,9.7H19.288v6.789a1.459,1.459,0,0,1-.4,1.058A1.245,1.245,0,0,1,17.98,29.722Z" transform="translate(-8.983 -2.43)"/><path class="a" d="M17.4,6.265a2.538,2.538,0,0,1-2.5-2.57,2.5,2.5,0,1,1,4.992,0A2.538,2.538,0,0,1,17.4,6.265Z" transform="translate(-10.116 -1.125)"/></svg>