<svg xmlns="http://www.w3.org/2000/svg" width="17.586" height="10.049" viewBox="0 0 17.586 10.049"><defs><style>.a{fill:#413f60;}</style></defs><path class="a" d="M28.583,10.8a.671.671,0,0,0-.365.106l-3.4,2.143a.336.336,0,0,0-.157.283v2.983a.336.336,0,0,0,.157.283l3.4,2.143a.706.706,0,0,0,.365.106H29.4a.334.334,0,0,0,.338-.334v-7.38A.337.337,0,0,0,29.4,10.8Z" transform="translate(-12.151 -9.795)"/><path class="a" d="M11.73,19.049H4.272A2.028,2.028,0,0,1,2.25,17.032V11.018A2.025,2.025,0,0,1,4.268,9h7.459a2.025,2.025,0,0,1,2.018,2.018v6.01A2.02,2.02,0,0,1,11.73,19.049Z" transform="translate(-2.25 -9)"/></svg>