<svg xmlns="http://www.w3.org/2000/svg" width="13.256" height="12.274" viewBox="0 0 13.256 12.274"><defs><style>.a{fill:#413f60;}</style></defs><path class="a" d="M16.773,18.058H5.481a.982.982,0,0,1-.982-.982V11.185a25,25,0,0,0,4.91,1.858v.6a.491.491,0,0,0,.491.491h2.455a.491.491,0,0,0,.491-.491v-.6a25.015,25.015,0,0,0,4.91-1.858v5.891A.982.982,0,0,1,16.773,18.058Zm-4.91-5.891a.491.491,0,0,1,.491.491v.491a.491.491,0,0,1-.491.491H10.39a.491.491,0,0,1-.491-.491v-.491a.491.491,0,0,1,.491-.491Zm.982,0a.491.491,0,0,0-.491-.491H9.9a.491.491,0,0,0-.491.491v.44A24.592,24.592,0,0,1,4.5,10.694V8.73a.982.982,0,0,1,.982-.982H8.426V6.766a.982.982,0,0,1,.982-.982h3.437a.982.982,0,0,1,.982.982v.982h2.946a.982.982,0,0,1,.982.982v1.964a24.606,24.606,0,0,1-4.91,1.913v-.44Zm0-4.91a.491.491,0,0,0-.491-.491H9.9a.491.491,0,0,0-.491.491v.491h3.437Z" transform="translate(-4.499 -5.784)"/></svg>