<svg xmlns="http://www.w3.org/2000/svg" width="22.796" height="17.097" viewBox="0 0 22.796 17.097"><defs><style>.a{fill:#f5f6f8;}</style></defs><path class="a" d="M11.119,9.346a3.562,3.562,0,1,1,3.562,3.562,3.562,3.562,0,0,1-3.562-3.562Zm-8.548,0a3.562,3.562,0,1,1,3.562,3.562A3.562,3.562,0,0,1,2.571,9.346Zm17.1,7.124V14.332a1.429,1.429,0,0,0-1.425-1.425H4a1.429,1.429,0,0,0-1.425,1.425v7.124A1.429,1.429,0,0,0,4,22.881H18.243a1.429,1.429,0,0,0,1.425-1.425V19.319l5.7,3.562V12.908Zm-2.849,3.562H5.42V15.757h11.4Z" transform="translate(-2.571 -5.784)"/></svg>