<svg xmlns="http://www.w3.org/2000/svg" width="17.524" height="23.365" viewBox="0 0 17.524 23.365"><defs><style>.a{fill:#f5f6f8;}</style></defs><path class="a" d="M16.794,2.19a.732.732,0,0,0,.73-.73V.73a.732.732,0,0,0-.73-.73H.73A.732.732,0,0,0,0,.73v.73a.732.732,0,0,0,.73.73h.73V9.341C.538,9.8,0,10.355,0,10.952a8.751,8.751,0,0,0,3.961,7.324l-.977,3.2a1.459,1.459,0,0,0,1.4,1.885h8.762a1.459,1.459,0,0,0,1.4-1.885l-.977-3.2a8.751,8.751,0,0,0,3.961-7.324c0-.6-.538-1.15-1.46-1.611V2.19ZM3.651,3.286a.366.366,0,0,1,.365-.365h2.19a.366.366,0,0,1,.365.365v.73a.366.366,0,0,1-.365.365H4.016a.366.366,0,0,1-.365-.365Zm5.111,9.127c-3.518,0-6.371-.653-6.371-1.46s2.852-1.46,6.371-1.46,6.371.653,6.371,1.46-2.852,1.46-6.371,1.46Z"/></svg>