<svg xmlns="http://www.w3.org/2000/svg" width="21" height="21" viewBox="0 0 21 21"><defs><style>.a{fill:#fff;}.b{fill:#413f60;}</style></defs><g transform="translate(-309 -11.279)"><circle class="a" cx="10.5" cy="10.5" r="10.5" transform="translate(309 11.279)"/><ellipse class="b" cx="3.284" cy="3.284" rx="3.284" ry="3.284" transform="translate(316.249 15.035)"/><path class="b" d="M0-47.412a5.559,5.559,0,0,1,1.644-1.66,5.176,5.176,0,0,1,2.211-.573,5.1,5.1,0,0,0,1.652.328,5.37,5.37,0,0,0,1.679-.328,5.161,5.161,0,0,1,2.211.573,5.431,5.431,0,0,1,1.623,1.66,7.275,7.275,0,0,1-5.513,2.586A7.9,7.9,0,0,1,0-47.412Z" transform="translate(314.044 72.497)"/></g></svg>